<?xml version="1.0" encoding="utf-8"?>
<!-- Generator: Adobe Illustrator 18.1.0, SVG Export Plug-In . SVG Version: 6.00 Build 0)  -->
<svg version="1.1" id="Слой_1" xmlns="http://www.w3.org/2000/svg" xmlns:xlink="http://www.w3.org/1999/xlink" x="0px" y="0px"
	 viewBox="0 0 17 17" enable-background="new 0 0 17 17" xml:space="preserve">
<g>
	<g>
		<g>
			<g>
				<path fill="#63BB67" d="M6.4,9.5c-2.6,0-4.7-2.1-4.7-4.7c0-2.6,2.1-4.7,4.7-4.7c2.6,0,4.7,2.1,4.7,4.7C11.1,7.4,9,9.5,6.4,9.5z
					 M6.4,1.1c-2,0-3.7,1.7-3.7,3.7c0,2,1.7,3.7,3.7,3.7c2,0,3.7-1.7,3.7-3.7C10.1,2.8,8.4,1.1,6.4,1.1z"/>
			</g>
			<g>
				<path fill="#63BB67" d="M12.2,9.5V8.5c1.4,0,2.6-1.2,2.6-2.6c0-1.4-1.2-2.6-2.6-2.6V2.2c2,0,3.7,1.7,3.7,3.7
					C15.8,7.9,14.2,9.5,12.2,9.5z"/>
			</g>
		</g>
		<g>
			<g>
				<g>
					<polygon fill="#63BB67" points="17,15.8 13.7,15.8 13.7,14.8 15.8,14.8 15.4,12 13.6,11.6 13.9,10.6 16.3,11.2 					"/>
				</g>
			</g>
		</g>
	</g>
	<g>
		<polygon fill="#63BB67" points="12.8,16.9 0,16.9 0.6,11.4 3.1,10.6 3.5,11.6 1.6,12.2 1.2,15.8 11.6,15.8 11.1,12.2 9.3,11.6 
			9.6,10.6 12.1,11.4 		"/>
	</g>
</g>
</svg>
