<?xml version="1.0" encoding="utf-8"?>
<!-- Generator: Adobe Illustrator 18.1.0, SVG Export Plug-In . SVG Version: 6.00 Build 0)  -->
<svg version="1.1" id="Слой_1" xmlns="http://www.w3.org/2000/svg" xmlns:xlink="http://www.w3.org/1999/xlink" x="0px" y="0px"
	 viewBox="0 0 20 20" enable-background="new 0 0 20 20" xml:space="preserve">
<g>
	<g>
		<g>
			<path fill="#3BACE2" d="M10,20c-4.8,0-8.7-3.9-8.7-8.7c0-3.6,2.2-6.8,5.5-8.1l0.5,1.2c-2.9,1.1-4.7,3.9-4.7,7
				c0,4.1,3.4,7.5,7.5,7.5s7.5-3.4,7.5-7.5c0-3.1-1.9-5.8-4.7-7l0.5-1.2c3.3,1.3,5.5,4.5,5.5,8.1C18.7,16.1,14.8,20,10,20z"/>
		</g>
	</g>
	<g>
		<path fill="#3BACE2" d="M10,8.1L10,8.1c-0.5,0-1-0.2-1.3-0.6C8.3,7.2,8.1,6.8,8.1,6.3V1.9c0-0.5,0.2-1,0.5-1.3C9,0.2,9.5,0,10,0
			c1,0,1.9,0.8,1.9,1.9v4.4C11.9,7.3,11,8.1,10,8.1z M10,1.3c-0.2,0-0.3,0.1-0.4,0.2C9.4,1.6,9.4,1.7,9.4,1.9v4.4
			c0,0.2,0.1,0.3,0.2,0.4C9.7,6.8,9.8,6.9,10,6.9c0.3,0,0.6-0.3,0.6-0.6V1.9C10.6,1.5,10.3,1.3,10,1.3z"/>
	</g>
</g>
</svg>
