<?xml version="1.0" encoding="utf-8"?>
<!-- Generator: Adobe Illustrator 18.1.0, SVG Export Plug-In . SVG Version: 6.00 Build 0)  -->
<svg version="1.1" id="Слой_1" xmlns="http://www.w3.org/2000/svg" xmlns:xlink="http://www.w3.org/1999/xlink" x="0px" y="0px"
	 viewBox="0 0 17 17" enable-background="new 0 0 17 17" xml:space="preserve">
<g>
	<g>
		<g>
			<path fill="#3AACE2" d="M17,17H0V9h17V17z M1.1,15.9h14.9v-5.8H1.1V15.9z"/>
		</g>
		<g>
			<path fill="#3AACE2" d="M8.5,11.7c-0.9,0-1.6-0.7-1.6-1.6H8c0,0.3,0.2,0.5,0.5,0.5S9,10.4,9,10.1h1.1C10.1,11,9.4,11.7,8.5,11.7z
				"/>
		</g>
		<g>
			<g>
				<path fill="#3AACE2" d="M12.2,3.7h-2.1V2.7c0-0.9-0.7-1.6-1.6-1.6S6.9,1.8,6.9,2.7v1.1H4.8V2.7h1.1C5.8,1.2,7,0,8.5,0
					s2.7,1.2,2.7,2.7h1.1V3.7z"/>
			</g>
		</g>
	</g>
	<g>
		<polygon fill="#3AACE2" points="17,8 15.9,8 15.9,5.8 1.1,5.8 1.1,8 0,8 0,4.8 17,4.8 		"/>
	</g>
</g>
</svg>
