<?xml version="1.0" encoding="utf-8"?>
<!-- Generator: Adobe Illustrator 18.1.0, SVG Export Plug-In . SVG Version: 6.00 Build 0)  -->
<svg version="1.1" id="Слой_1" xmlns="http://www.w3.org/2000/svg" xmlns:xlink="http://www.w3.org/1999/xlink" x="0px" y="0px"
	 viewBox="0 0 17 17" enable-background="new 0 0 17 17" xml:space="preserve">
<path fill="#8877A9" d="M17,15.1L17,15.1c0,1.1-0.8,1.9-1.8,1.9l0,0H1.8l0,0c-1,0-1.8-0.9-1.8-1.9V3.9C0,3,0.7,2.4,1.5,2.4l0,0h7.5
	l3-1.1c0.2-0.1,0.4,0,0.5,0.2l0.3,0.9H14c0.8,0,1.5,0.7,1.5,1.5v0.8l0,0c0.8,0,1.5,0.7,1.5,1.5 M1.5,3.1L1.5,3.1
	c-0.4,0-0.7,0.3-0.7,0.8s0.3,0.8,0.7,0.8h1.3l0,0h0.1c0,0,0,0,0,0l4.1-1.5H1.5z M12.2,3.2l-0.4-1.1h0l0,0l-0.8,0.3h0L9,3.1h0L5,4.7
	h7.8L12.2,3.2z M14.8,3.9c0-0.4-0.3-0.8-0.7-0.8H13l0.5,1.5h1.3l0,0V3.9z M15.5,5.4h-14l0,0C1.2,5.4,1,5.4,0.7,5.2v9.8
	c0,0.6,0.5,1.2,1.1,1.2h13.3c0.6,0,1.1-0.5,1.1-1.2v-2.7h-1.5c-0.8,0-1.5-0.7-1.5-1.5c0-0.9,0.7-1.5,1.5-1.5h1.5V6.2
	C16.3,5.8,15.9,5.4,15.5,5.4z M16.3,10.1h-1.5c-0.4,0-0.7,0.3-0.7,0.8c0,0.4,0.3,0.8,0.7,0.8h1.5"/>
</svg>
