<?xml version="1.0" encoding="utf-8"?>
<!-- Generator: Adobe Illustrator 18.1.0, SVG Export Plug-In . SVG Version: 6.00 Build 0)  -->
<svg version="1.1" id="Слой_1" xmlns="http://www.w3.org/2000/svg" xmlns:xlink="http://www.w3.org/1999/xlink" x="0px" y="0px"
	 viewBox="0 0 17 17" enable-background="new 0 0 17 17" xml:space="preserve">
<g>
	<g>
		<g>
			<g>
				<path fill="#FF9148" d="M8.5,11.1L8.5,11.1c-0.7,0-1.4-0.3-1.9-0.8C6.1,9.9,5.8,9.2,5.8,8.5C5.8,7,7,5.8,8.5,5.8
					c0.7,0,1.4,0.3,1.9,0.8c0.5,0.5,0.8,1.2,0.8,1.9C11.1,10,9.9,11.1,8.5,11.1z M8.5,6.9c-0.9,0-1.6,0.7-1.6,1.6
					c0,0.4,0.2,0.8,0.5,1.1c0.3,0.3,0.7,0.5,1.1,0.5l0,0.5v-0.5c0.9,0,1.6-0.7,1.6-1.6c0-0.4-0.2-0.8-0.5-1.1S8.9,6.9,8.5,6.9z"/>
			</g>
		</g>
		<g>
			<g>
				<path fill="#FF9148" stroke="#FF9148" stroke-width="2" stroke-miterlimit="10" d="M5.5,12.7"/>
			</g>
		</g>
	</g>
	<g>
		<path fill="#FF9148" d="M10.3,17l-3.4,0l-0.7-2.5c-0.6-0.2-1.2-0.5-1.8-1l-2.4,0.6l-1.7-2.9l1.7-1.6C2,9.2,2,8.8,2,8.5
			c0-0.3,0-0.6,0.1-0.9L0.2,5.7l1.7-2.9l2.6,0.7c0.5-0.4,1.2-0.8,1.8-1l0.1-0.4l1.1,0.1L7.2,3.3L6.9,3.4C6.2,3.6,5.5,4,4.9,4.5
			L4.7,4.6L2.4,4L1.5,5.5l1.7,1.7L3.2,7.5c-0.1,0.3-0.1,0.7-0.1,1c0,0.4,0,0.8,0.1,1.2l0.1,0.3l-1.5,1.5l0.9,1.5l2.1-0.6l0.2,0.2
			c0.6,0.5,1.2,0.8,1.9,1l0.3,0.1l0.6,2.3l1.7,0l0.6-2.4l0.2-0.1c0.5-0.2,1-0.5,1.4-0.9l0.2-0.2l2.3,0.6l0.9-1.5l-1.7-1.7l0.1-0.3
			c0.1-0.3,0.1-0.7,0.1-1c0-0.2,0-0.5-0.1-0.8l0-0.3l1.9-1.9l-0.9-1.5l-2.5,0.7l-0.2-0.2c-0.5-0.4-1-0.7-1.5-0.9l-0.2-0.1L9.5,1.1
			l-2.7,0l0-1.1l3.5,0L11,2.7C11.5,3,12,3.2,12.4,3.6l2.8-0.7l1.7,2.9l-2.1,2.1c0,0.2,0,0.5,0,0.7c0,0.3,0,0.6-0.1,0.9l1.9,1.9
			l-1.7,2.9l-2.6-0.7c-0.4,0.3-0.8,0.6-1.3,0.8L10.3,17z"/>
	</g>
</g>
</svg>
