<?xml version="1.0" encoding="utf-8"?>
<!-- Generator: Adobe Illustrator 18.1.0, SVG Export Plug-In . SVG Version: 6.00 Build 0)  -->
<svg version="1.1" id="Слой_1" xmlns="http://www.w3.org/2000/svg" xmlns:xlink="http://www.w3.org/1999/xlink" x="0px" y="0px"
	 viewBox="0 0 20 20" enable-background="new 0 0 20 20" xml:space="preserve">
<g>
	<g>
		<g>
			<path fill="#3BACE2" d="M9.9,11.2c-3.1,0-5.6-2.5-5.6-5.6s2.5-5.6,5.6-5.6c3.1,0,5.6,2.5,5.6,5.6S12.9,11.2,9.9,11.2z M9.9,1.3
				c-2.4,0-4.3,2-4.3,4.3s2,4.3,4.3,4.3c2.4,0,4.3-2,4.3-4.3S12.3,1.3,9.9,1.3z"/>
		</g>
	</g>
	<g>
		<polygon fill="#3BACE2" points="18.1,19.9 1.9,19.9 2.6,13.3 6,11.9 6.5,13.1 3.7,14.2 3.2,18.7 16.8,18.7 16.3,14.2 13.5,13.1 
			14,11.9 17.4,13.3 		"/>
	</g>
</g>
</svg>
