<?xml version="1.0" encoding="utf-8"?>
<!-- Generator: Adobe Illustrator 18.1.0, SVG Export Plug-In . SVG Version: 6.00 Build 0)  -->
<svg version="1.1" xmlns="http://www.w3.org/2000/svg" xmlns:xlink="http://www.w3.org/1999/xlink" x="0px" y="0px"
	 viewBox="0 0 140 140" enable-background="new 0 0 140 140" xml:space="preserve">
<g id="Слой_1" display="none">
	<g display="inline">
		<g>
			<path fill="#3BACE2" d="M5,74h130c2,0,2.8-0.3,3.5-2s1.3-4,0-5.5l-60-60c-2-2-4-2-6,0c-2,2-1,5,1,7L124.3,66H5c-2.8,0-5,1.3-5,4
				S2.3,74,5,74z"/>
		</g>
		<g>
			<path fill="#3BACE2" d="M76.3,135c1.3,0,1.5-0.5,2.5-1.5l39.3-40c2-2,3-5,1-7c-2-2-5-2-7,0l-38.3,40c-2,2-3,5-1,7
				C73.8,134.5,75,135,76.3,135z"/>
		</g>
	</g>
	<g display="inline">
		<g>
			<path fill="#3BACE2" d="M0,70c0,2.8,2.3,4,5,4h119.3l-50.5,52.5c-2,2-3,5-1,7s4,2,6,0l59-60c-0.4,0.4,1-5.4,1-5.5
				c-0.8-1.8-1.8-2-1.8-2H7.7C2.3,66,0,67.3,0,70z"/>
		</g>
		<g>
			<path fill="#3BACE2" d="M72.8,6.5c-2,2-1,5,1,7l39.3,40c2,2,4,2,6,0c2-2,1-5-1-7l-39.3-40c-1-1-1.2-1.5-2.5-1.5
				S73.8,5.5,72.8,6.5z"/>
		</g>
	</g>
</g>
<g id="Слой_2">
	<path fill="#3BACE2" d="M135.3,74H4c-2.2,0-4-1.8-4-4l0,0c0-2.2,1.8-4,4-4h131.3c2.2,0,4,1.8,4,4v0C139.3,72.2,137.5,74,135.3,74z"
		/>
</g>
<g id="Слой_3">
	<path fill="#3BACE2" d="M132.1,71.8L73.8,11.8c-1.5-1.6-1.5-4.1,0.1-5.7v0c1.6-1.5,4.1-1.5,5.7,0.1l58.3,60.1
		c1.5,1.6,1.5,4.1-0.1,5.7v0C136.2,73.5,133.7,73.4,132.1,71.8z"/>
	<path fill="#3BACE2" d="M132.4,67.2l-58.3,60.1c-1.5,1.6-1.5,4.1,0.1,5.7h0c1.6,1.5,4.1,1.5,5.7-0.1l58.3-60.1
		c1.5-1.6,1.5-4.1-0.1-5.7v0C136.5,65.6,133.9,65.6,132.4,67.2z"/>
</g>
</svg>
