<?xml version="1.0" encoding="utf-8"?>
<!-- Generator: Adobe Illustrator 18.1.0, SVG Export Plug-In . SVG Version: 6.00 Build 0)  -->
<svg version="1.1" id="Слой_1" xmlns="http://www.w3.org/2000/svg" xmlns:xlink="http://www.w3.org/1999/xlink" x="0px" y="0px"
	 viewBox="0 0 140 140" enable-background="new 0 0 140 140" xml:space="preserve">
<g>
	<path fill="#3BACE2" d="M83.6,69.8c2.9-3.2,4.7-7.5,4.7-12.2c0-10.1-8.2-18.3-18.3-18.3s-18.3,8.2-18.3,18.3S59.9,75.9,70,75.9
		c3.6,0,8.2-1.4,11-3.1c11.5,3.8,17.2,15.4,17.2,24.1H41.6c0.6-7.1,2.7-14.8,8.1-19.5c1-0.8,3.3-1.6,2.4-2.5c-0.8-1-2.3-1.1-3.2-0.2
		c-7,6.1-11,14.9-11,24.1c0,1.3,1,1.3,2.3,1.3h59.4c1.3,0,2.3,0,2.3-1.3C102,86.2,94.7,75,83.6,69.8z M54.2,57.6
		c0-8.9,8.2-15.7,15.7-15.7c9.8,0,15.7,7.3,15.7,15.7c0,9.5-8.2,15.7-15.7,15.7C60.7,73.3,54.2,65.2,54.2,57.6z"/>
</g>
<g>
	<path fill="#3BACE2" d="M38,98.7c0,1.3,1,1.3,2.3,1.3h59.4c1.3,0,2.3,0,2.3-1.3c0-9.2-4-18-11-24.1c-1-0.8-2.4-0.7-3.2,0.2
		c-0.8,1,0.8,1.1,1.8,1.9c5.4,4.7,8.1,13.1,8.6,20.2H41.6c0-8.7,5.9-20.4,17.4-24.2c2.8,1.8,7.5,3.1,11,3.1
		c10.1,0,18.3-8.2,18.3-18.3S80.1,39.3,70,39.3s-18.3,8.2-18.3,18.3c0,4.7,1.8,8.9,4.7,12.2C45.3,75,38,86.2,38,98.7z M70,73.3
		c-7.6,0-15.7-6.2-15.7-15.7c0-8.4,5.9-15.7,15.7-15.7c7.6,0,15.7,6.8,15.7,15.7C85.7,65.2,79.3,73.3,70,73.3z"/>
</g>
<g>
	<path fill="#3BACE2" d="M69.9,3c36.9,0,67,30.1,67,67s-30.1,67-67,67s-67-30.1-67-67S33,3,69.9,3 M69.9,0c-38.7,0-70,31.3-70,70
		s31.3,70,70,70s70-31.3,70-70S108.6,0,69.9,0L69.9,0z"/>
</g>
</svg>
