<?xml version="1.0" encoding="utf-8"?>
<!-- Generator: Adobe Illustrator 18.1.0, SVG Export Plug-In . SVG Version: 6.00 Build 0)  -->
<svg version="1.1" id="Слой_1" xmlns="http://www.w3.org/2000/svg" xmlns:xlink="http://www.w3.org/1999/xlink" x="0px" y="0px"
	 viewBox="0 0 140 140" enable-background="new 0 0 140 140" xml:space="preserve">
<g id="Слой_2">
	<path fill="#3BACE2" d="M96.4,92.3H43.6c-3.1,0-5.6-2.5-5.6-5.6V53.3c0-3.1,2.5-5.6,5.6-5.6h52.9c3.1,0,5.6,2.5,5.6,5.6v33.4
		C102,89.8,99.5,92.3,96.4,92.3z M40.8,65.8h58.4v-5.6H40.8V65.8z M99.2,53.3c0-1.5-1.2-2.8-2.8-2.8H43.6c-1.5,0-2.8,1.2-2.8,2.8
		v4.2h58.4V53.3z M99.2,68.6H40.8v18.1c0,1.5,1.2,2.8,2.8,2.8h52.9c1.5,0,2.8-1.2,2.8-2.8V68.6H99.2z M72.8,77h-5.6
		c-0.8,0-1.4-0.6-1.4-1.4s0.6-1.4,1.4-1.4h5.6c0.8,0,1.4,0.6,1.4,1.4C74.2,76.3,73.6,77,72.8,77z M60.3,77H47.7
		c-0.8,0-1.4-0.6-1.4-1.4s0.6-1.4,1.4-1.4h12.5c0.8,0,1.4,0.6,1.4,1.4C61.7,76.3,61,77,60.3,77z M47.7,81.1H56
		c0.8,0,1.4,0.6,1.4,1.4s-0.6,1.4-1.4,1.4h-8.3c-0.8,0-1.4-0.6-1.4-1.4C46.3,81.8,47,81.1,47.7,81.1z"/>
</g>
<g>
	<path fill="#3BACE2" d="M70,3c36.9,0,67,30.1,67,67s-30.1,67-67,67S3,106.9,3,70S33.1,3,70,3 M70,0C31.3,0,0,31.3,0,70
		s31.3,70,70,70s70-31.3,70-70S108.7,0,70,0L70,0z"/>
</g>
</svg>
