<?xml version="1.0" encoding="utf-8"?>
<!-- Generator: Adobe Illustrator 18.1.0, SVG Export Plug-In . SVG Version: 6.00 Build 0)  -->
<svg version="1.1" id="Слой_1" xmlns="http://www.w3.org/2000/svg" xmlns:xlink="http://www.w3.org/1999/xlink" x="0px" y="0px"
	 viewBox="0 0 140 140" enable-background="new 0 0 140 140" xml:space="preserve">
<g id="Слой_2">
	<g>
		<path fill="#3BACE2" d="M96.7,86.2h-8.6c-0.8,0-1.5-0.6-1.5-1.5c0-0.8,0.6-1.5,1.5-1.5h8.6c0.8,0,1.5,0.6,1.5,1.5
			C98.2,85.6,97.4,86.2,96.7,86.2z"/>
		<path fill="#3BACE2" d="M99.5,77.6H88c-0.8,0-1.5-0.6-1.5-1.5c0-0.8,0.6-1.5,1.5-1.5h11.5c0.8,0,1.5,0.6,1.5,1.5
			C101,77,100.3,77.6,99.5,77.6z"/>
		<path fill="#3BACE2" d="M99.5,68.9H88c-0.8,0-1.5-0.6-1.5-1.5c0-0.8,0.6-1.5,1.5-1.5h11.5c0.8,0,1.5,0.6,1.5,1.5
			C101,68.3,100.3,68.9,99.5,68.9z"/>
		<path fill="#3BACE2" d="M89.1,94.7H65.6c-1.6,0-3-0.5-4.1-1.6c-0.8-0.8-2-1.3-3.2-1.3h-1.8c-0.8,0-1.5-0.6-1.5-1.5
			c0-0.8,0.6-1.5,1.5-1.5h1.8c2,0,3.8,0.7,5.2,2.1c0.5,0.5,1.3,0.7,2.1,0.7h23.5c2.8,0,4.4-1.3,5.2-2.3c1.1-1.6,1.4-3.3,1-4.5
			c-0.2-0.7,0.2-1.5,0.9-1.8c1.3-0.4,2-1.5,2.2-2.3c0.6-1.6,0.4-3.3-0.2-4.3c-0.4-0.6-0.2-1.5,0.4-1.9c1.4-0.9,1.8-2.6,1.6-3.8
			c-0.1-1.1-0.6-2-1.4-2.3c-0.6-0.3-0.9-0.9-0.8-1.6c0.1-0.6,0.7-1.1,1.4-1.1c0.6,0,1,0,1-2.2c0-2.8-1-3.6-4.7-3.6H80.4
			c-0.4,0-0.8-0.2-1.1-0.5c-0.3-0.3-0.3-0.8-0.2-1.3c2.6-9.4,0.6-14-1.9-15.1c-1.3-0.5-2.6-0.2-3.3,0.8v6.4c0,0.9-0.3,1.9-0.6,2.6
			c-1.6,4.5-4.7,8.6-9.4,12.3c-0.2,0.1-0.3,0.3-0.4,0.4c-1.5,1.8-4,2.9-6.5,2.9c-0.8,0-1.5-0.6-1.5-1.5c0-0.8,0.6-1.5,1.5-1.5
			c1.7,0,3.3-0.7,4.3-1.9c0.3-0.3,0.5-0.6,0.9-0.8c4.3-3.4,7.1-7,8.5-11c0.2-0.6,0.4-1.3,0.4-1.7v-6.8c0-0.3,0.1-0.5,0.2-0.7
			c1.5-2.5,4.5-3.4,7.2-2.3c3.6,1.6,6.3,6.7,4,16.7h13.7c2.3,0,7.5,0,7.5,6.5c0,0.8,0,2.8-1.3,4.1c0.5,0.8,0.9,1.8,1,2.9
			c0.2,2.2-0.5,4.3-2,5.6c0.5,1.7,0.5,3.8-0.1,5.5c-0.6,1.5-1.6,2.7-2.8,3.4c0.2,2-0.4,4.1-1.8,5.7C94.8,93.6,92.2,94.7,89.1,94.7z"
			/>
		<path fill="#3BACE2" d="M55.1,94.7H37.9c-0.8,0-1.5-0.6-1.5-1.5V64.7c0-0.8,0.6-1.5,1.5-1.5h17.2c0.8,0,1.5,0.6,1.5,1.5v28.6
			C56.6,94.1,55.9,94.7,55.1,94.7z M39.3,91.9h14.3V66.1H39.3V91.9z"/>
	</g>
</g>
<g>
	<path fill="#3BACE2" d="M70,3c36.9,0,67,30.1,67,67s-30.1,67-67,67S3,106.9,3,70S33.1,3,70,3 M70,0C31.3,0,0,31.3,0,70
		s31.3,70,70,70s70-31.3,70-70S108.7,0,70,0L70,0z"/>
</g>
</svg>
