<?xml version="1.0" encoding="utf-8"?>
<!-- Generator: Adobe Illustrator 18.1.0, SVG Export Plug-In . SVG Version: 6.00 Build 0)  -->
<svg version="1.1" id="Layer_1" xmlns="http://www.w3.org/2000/svg" xmlns:xlink="http://www.w3.org/1999/xlink" x="0px" y="0px"
	 viewBox="-53 55 32 32" enable-background="new -53 55 32 32" xml:space="preserve">
<g>
	<g>
		<path fill="#3BACE2" d="M-40,80c-0.3,0-0.5-0.1-0.7-0.3l-9-9c-0.4-0.4-0.4-1,0-1.4c0.4-0.4,1-0.4,1.4,0l9,9c0.4,0.4,0.4,1,0,1.4
			C-39.5,79.9-39.7,80-40,80z"/>
	</g>
	<g>
		<path fill="#3BACE2" d="M-40,80c-0.3,0-0.5-0.1-0.7-0.3c-0.4-0.4-0.4-1,0-1.4l16-16c0.4-0.4,1-0.4,1.4,0c0.4,0.4,0.4,1,0,1.4
			l-16,16C-39.5,79.9-39.7,80-40,80z"/>
	</g>
</g>
</svg>
