<?xml version="1.0" encoding="utf-8"?>
<!-- Generator: Adobe Illustrator 18.1.0, SVG Export Plug-In . SVG Version: 6.00 Build 0)  -->
<svg version="1.1" id="Слой_1" xmlns="http://www.w3.org/2000/svg" xmlns:xlink="http://www.w3.org/1999/xlink" x="0px" y="0px"
	 viewBox="0 0 148.6 20.9" enable-background="new 0 0 148.6 20.9" xml:space="preserve">
<g>
	<path fill="#3BACE2" d="M17.3,3.5c0,0.3,0,0.6,0,0.8c0,0.2-0.1,0.4-0.1,0.5C17.1,4.9,17,5,17,5.1c-0.1,0.1-0.1,0.1-0.2,0.1
		c-0.1,0-0.4-0.1-0.7-0.3c-0.3-0.2-0.7-0.4-1.2-0.6s-1.1-0.4-1.8-0.6c-0.7-0.2-1.5-0.3-2.4-0.3c-1,0-1.9,0.2-2.7,0.5
		C7.2,4.2,6.5,4.7,6,5.3C5.4,5.9,5,6.7,4.7,7.5c-0.3,0.9-0.5,1.8-0.5,2.9c0,1.2,0.2,2.2,0.5,3.1C5,14.4,5.4,15.1,6,15.7
		c0.6,0.6,1.2,1,2,1.3c0.8,0.3,1.6,0.5,2.6,0.5c0.5,0,0.9-0.1,1.4-0.2c0.4-0.1,0.9-0.3,1.3-0.5v-4.7H9.3c-0.2,0-0.3-0.1-0.4-0.4
		c-0.1-0.2-0.2-0.6-0.2-1.2c0-0.3,0-0.5,0-0.7c0-0.2,0.1-0.4,0.1-0.5C8.9,9.3,9,9.2,9.1,9.1c0.1-0.1,0.2-0.1,0.3-0.1h6.8
		c0.2,0,0.3,0,0.4,0.1c0.1,0.1,0.2,0.1,0.3,0.3c0.1,0.1,0.2,0.3,0.2,0.4c0.1,0.2,0.1,0.3,0.1,0.6v8c0,0.3-0.1,0.6-0.2,0.8
		s-0.3,0.4-0.7,0.6c-0.3,0.1-0.8,0.3-1.3,0.4c-0.5,0.1-1,0.3-1.6,0.4c-0.5,0.1-1.1,0.2-1.6,0.2c-0.5,0.1-1.1,0.1-1.6,0.1
		c-1.6,0-3.1-0.2-4.3-0.7c-1.3-0.5-2.4-1.1-3.2-2c-0.9-0.9-1.6-2-2-3.2S0,12.3,0,10.7C0,9,0.3,7.5,0.8,6.2C1.3,4.9,2,3.8,2.9,2.9
		c0.9-0.9,2-1.6,3.3-2.1C7.5,0.2,8.9,0,10.5,0c0.9,0,1.7,0.1,2.4,0.2c0.7,0.1,1.3,0.3,1.9,0.4c0.5,0.2,1,0.4,1.3,0.6
		c0.4,0.2,0.6,0.4,0.7,0.5C17,1.8,17.1,2,17.2,2.3S17.3,3,17.3,3.5z"/>
	<path fill="#3BACE2" d="M30.8,19.3c0,0.2,0,0.5,0,0.6s-0.1,0.3-0.1,0.4s-0.1,0.2-0.2,0.2s-0.1,0.1-0.2,0.1H22
		c-0.3,0-0.5-0.1-0.7-0.2S21,19.9,21,19.5V5.2c0-0.4,0.1-0.6,0.3-0.8s0.4-0.2,0.7-0.2h8.2c0.1,0,0.1,0,0.2,0.1s0.1,0.1,0.2,0.2
		s0.1,0.2,0.1,0.4s0,0.4,0,0.6c0,0.2,0,0.4,0,0.6s-0.1,0.3-0.1,0.4s-0.1,0.2-0.2,0.2s-0.1,0.1-0.2,0.1h-5.9v4h5c0.1,0,0.1,0,0.2,0.1
		s0.1,0.1,0.2,0.2s0.1,0.2,0.1,0.4s0,0.4,0,0.6c0,0.2,0,0.4,0,0.6s-0.1,0.3-0.1,0.4s-0.1,0.2-0.2,0.2s-0.1,0.1-0.2,0.1h-5v4.6h5.9
		c0.1,0,0.1,0,0.2,0.1s0.1,0.1,0.2,0.2s0.1,0.2,0.1,0.4S30.8,19,30.8,19.3z"/>
	<path fill="#3BACE2" d="M44.7,5.5c0,0.2,0,0.5,0,0.6s-0.1,0.3-0.1,0.4s-0.1,0.2-0.2,0.2s-0.1,0.1-0.2,0.1H40v13.2
		c0,0.1,0,0.2-0.1,0.2s-0.1,0.1-0.3,0.2s-0.3,0.1-0.5,0.1s-0.5,0-0.8,0s-0.6,0-0.8,0s-0.4-0.1-0.5-0.1s-0.2-0.1-0.3-0.2
		s-0.1-0.1-0.1-0.2V6.9h-4.1c-0.1,0-0.2,0-0.2-0.1s-0.1-0.1-0.2-0.2s-0.1-0.2-0.1-0.4s0-0.4,0-0.6c0-0.3,0-0.5,0-0.6
		s0.1-0.3,0.1-0.4s0.1-0.2,0.2-0.2s0.1-0.1,0.2-0.1h11.6c0.1,0,0.1,0,0.2,0.1s0.1,0.1,0.2,0.2s0.1,0.2,0.1,0.4S44.7,5.3,44.7,5.5z"
		/>
	<path fill="#3BACE2" d="M60.9,6.5c0,1.1-0.2,2.1-0.5,3c-0.4,0.9-0.9,1.6-1.5,2.2c-0.7,0.6-1.5,1.1-2.5,1.4s-2.1,0.5-3.5,0.5h-1.7
		V20c0,0.1,0,0.2-0.1,0.3c-0.1,0.1-0.2,0.2-0.3,0.2c-0.2,0.1-0.4,0.1-0.6,0.1c-0.3,0-0.6,0-1,0c-0.4,0-0.7,0-1,0s-0.5-0.1-0.6-0.1
		c-0.2-0.1-0.3-0.1-0.3-0.2C47,20.2,47,20.1,47,20V1.8c0-0.5,0.1-0.9,0.4-1.1c0.3-0.2,0.6-0.4,1-0.4h4.8c0.5,0,0.9,0,1.4,0.1
		c0.4,0,1,0.1,1.6,0.2c0.6,0.1,1.2,0.3,1.8,0.7c0.6,0.3,1.1,0.7,1.6,1.2c0.4,0.5,0.8,1.1,1,1.7C60.7,4.9,60.9,5.7,60.9,6.5z
		 M56.6,6.8c0-0.7-0.1-1.3-0.4-1.8c-0.3-0.5-0.6-0.8-0.9-1c-0.4-0.2-0.7-0.4-1.1-0.4c-0.4-0.1-0.8-0.1-1.2-0.1h-1.8v6.9H53
		c0.7,0,1.2-0.1,1.6-0.3c0.4-0.2,0.8-0.4,1.1-0.7C56,9,56.2,8.7,56.3,8.2C56.5,7.8,56.6,7.3,56.6,6.8z"/>
	<path fill="#3BACE2" d="M77.1,19.3c0.1,0.3,0.2,0.5,0.2,0.7s0,0.3-0.1,0.4s-0.3,0.1-0.5,0.2s-0.6,0-1,0c-0.4,0-0.8,0-1,0
		c-0.2,0-0.4,0-0.6-0.1s-0.2-0.1-0.3-0.2s-0.1-0.2-0.1-0.3l-1.1-3.3h-6.2l-1,3.2c0,0.1-0.1,0.2-0.1,0.3s-0.1,0.1-0.3,0.2
		s-0.3,0.1-0.5,0.1s-0.5,0-0.9,0c-0.4,0-0.7,0-0.9,0s-0.4-0.1-0.5-0.2s-0.1-0.2-0.1-0.4s0.1-0.4,0.2-0.7l5.1-14.6
		c0.1-0.1,0.1-0.3,0.2-0.3s0.2-0.2,0.3-0.2s0.4-0.1,0.6-0.1c0.3,0,0.6,0,1,0c0.5,0,0.9,0,1.2,0s0.5,0,0.7,0.1c0.2,0,0.3,0.1,0.4,0.2
		C71.9,4.5,72,4.6,72,4.8L77.1,19.3z M69.5,7.3L69.5,7.3l-2.3,7h4.7L69.5,7.3z"/>
	<path fill="#3BACE2" d="M91.6,20.1c0,0.1,0,0.2-0.1,0.2s-0.1,0.1-0.2,0.2s-0.3,0.1-0.6,0.1s-0.6,0-1,0c-0.4,0-0.6,0-0.9,0
		s-0.4,0-0.5-0.1c-0.1,0-0.2-0.1-0.3-0.2S88,20.2,88,20.1l-1.5-3.7c-0.2-0.4-0.4-0.8-0.5-1.1s-0.4-0.6-0.6-0.8
		c-0.2-0.2-0.4-0.4-0.7-0.5s-0.6-0.2-0.9-0.2h-1v6.3c0,0.1,0,0.2-0.1,0.2c-0.1,0.1-0.1,0.1-0.3,0.2s-0.3,0.1-0.5,0.1s-0.5,0-0.8,0
		c-0.3,0-0.6,0-0.8,0c-0.2,0-0.4-0.1-0.5-0.1s-0.2-0.1-0.3-0.2s-0.1-0.1-0.1-0.2V5.2c0-0.4,0.1-0.6,0.3-0.8c0.2-0.2,0.4-0.2,0.7-0.2
		h4.3c0.4,0,0.8,0,1.1,0s0.5,0,0.8,0.1c0.7,0.1,1.3,0.3,1.8,0.5c0.5,0.2,1,0.5,1.3,0.9C90,6,90.2,6.4,90.4,6.9s0.3,1.1,0.3,1.7
		c0,0.6-0.1,1.1-0.2,1.5c-0.1,0.5-0.3,0.9-0.6,1.2s-0.6,0.7-1,0.9s-0.9,0.5-1.4,0.6c0.2,0.1,0.5,0.3,0.7,0.4
		c0.2,0.2,0.4,0.4,0.6,0.6c0.2,0.2,0.4,0.5,0.5,0.8s0.3,0.7,0.5,1l1.4,3.2c0.1,0.3,0.2,0.6,0.3,0.7S91.6,20,91.6,20.1z M87.3,9
		c0-0.5-0.1-1-0.4-1.4S86.3,7,85.7,6.8c-0.2,0-0.4-0.1-0.6-0.1c-0.2,0-0.5,0-0.9,0h-1.5v4.7h1.7c0.5,0,0.9-0.1,1.2-0.2
		s0.7-0.3,0.9-0.5s0.4-0.5,0.5-0.7S87.3,9.3,87.3,9z"/>
	<path fill="#3BACE2" d="M104.7,5.5c0,0.2,0,0.5,0,0.6c0,0.2-0.1,0.3-0.1,0.4s-0.1,0.2-0.2,0.2c-0.1,0.1-0.1,0.1-0.2,0.1h-4.1v13.2
		c0,0.1,0,0.2-0.1,0.2c-0.1,0.1-0.1,0.1-0.3,0.2s-0.3,0.1-0.5,0.1c-0.2,0-0.5,0-0.8,0s-0.6,0-0.8,0c-0.2,0-0.4-0.1-0.5-0.1
		s-0.2-0.1-0.3-0.2c-0.1-0.1-0.1-0.1-0.1-0.2V6.9h-4.1c-0.1,0-0.2,0-0.2-0.1s-0.1-0.1-0.2-0.2s-0.1-0.2-0.1-0.4c0-0.2,0-0.4,0-0.6
		c0-0.3,0-0.5,0-0.6c0-0.2,0.1-0.3,0.1-0.4s0.1-0.2,0.2-0.2s0.1-0.1,0.2-0.1h11.6c0.1,0,0.1,0,0.2,0.1c0.1,0,0.1,0.1,0.2,0.2
		s0.1,0.2,0.1,0.4C104.7,5,104.7,5.3,104.7,5.5z"/>
	<path fill="#3BACE2" d="M120.2,19.4c0,0.2,0,0.4-0.1,0.5s-0.2,0.3-0.3,0.4c-0.1,0.1-0.2,0.2-0.4,0.2c-0.2,0-0.3,0.1-0.5,0.1h-1.4
		c-0.3,0-0.6,0-0.8-0.1c-0.2-0.1-0.4-0.2-0.6-0.3c-0.2-0.2-0.4-0.4-0.5-0.6s-0.4-0.6-0.6-1l-4.1-7.7c-0.2-0.5-0.5-1-0.7-1.5
		s-0.5-1-0.7-1.5h0c0,0.6,0.1,1.2,0.1,1.8s0,1.2,0,1.9v8.6c0,0.1,0,0.2-0.1,0.2c0,0.1-0.1,0.1-0.2,0.2c-0.1,0-0.3,0.1-0.5,0.1
		s-0.4,0-0.7,0c-0.3,0-0.5,0-0.7,0s-0.3-0.1-0.5-0.1s-0.2-0.1-0.2-0.2s-0.1-0.1-0.1-0.2V5.3c0-0.4,0.1-0.7,0.3-0.9
		c0.2-0.2,0.5-0.3,0.9-0.3h1.8c0.3,0,0.6,0,0.8,0.1s0.4,0.1,0.6,0.3c0.2,0.1,0.3,0.3,0.5,0.5s0.3,0.5,0.5,0.8l3.2,6
		c0.2,0.4,0.4,0.7,0.6,1.1c0.2,0.4,0.4,0.7,0.5,1.1s0.3,0.7,0.5,1s0.3,0.7,0.5,1h0c0-0.6,0-1.2-0.1-1.9c0-0.6,0-1.3,0-1.8V4.6
		c0-0.1,0-0.2,0.1-0.2s0.1-0.1,0.3-0.2s0.3-0.1,0.5-0.1s0.4,0,0.7,0c0.3,0,0.5,0,0.7,0s0.3,0.1,0.5,0.1c0.1,0.1,0.2,0.1,0.2,0.2
		s0.1,0.1,0.1,0.2V19.4z"/>
	<path fill="#3BACE2" d="M133.5,19.3c0,0.2,0,0.5,0,0.6c0,0.2-0.1,0.3-0.1,0.4s-0.1,0.2-0.2,0.2c-0.1,0-0.1,0.1-0.2,0.1h-8.3
		c-0.3,0-0.5-0.1-0.7-0.2c-0.2-0.2-0.3-0.4-0.3-0.8V5.2c0-0.4,0.1-0.6,0.3-0.8c0.2-0.2,0.4-0.2,0.7-0.2h8.2c0.1,0,0.1,0,0.2,0.1
		s0.1,0.1,0.2,0.2s0.1,0.2,0.1,0.4c0,0.2,0,0.4,0,0.6c0,0.2,0,0.4,0,0.6c0,0.2-0.1,0.3-0.1,0.4s-0.1,0.2-0.2,0.2S133,6.8,133,6.8
		h-5.9v4h5c0.1,0,0.1,0,0.2,0.1c0.1,0,0.1,0.1,0.2,0.2s0.1,0.2,0.1,0.4c0,0.2,0,0.4,0,0.6c0,0.2,0,0.4,0,0.6c0,0.2-0.1,0.3-0.1,0.4
		s-0.1,0.2-0.2,0.2c-0.1,0-0.1,0.1-0.2,0.1h-5v4.6h5.9c0.1,0,0.1,0,0.2,0.1c0.1,0,0.1,0.1,0.2,0.2s0.1,0.2,0.1,0.4
		C133.5,18.8,133.5,19,133.5,19.3z"/>
	<path fill="#3BACE2" d="M148.6,20.1c0,0.1,0,0.2-0.1,0.2s-0.1,0.1-0.2,0.2s-0.3,0.1-0.6,0.1s-0.6,0-1,0c-0.4,0-0.6,0-0.9,0
		s-0.4,0-0.5-0.1c-0.1,0-0.2-0.1-0.3-0.2s-0.1-0.2-0.1-0.3l-1.5-3.7c-0.2-0.4-0.4-0.8-0.5-1.1s-0.4-0.6-0.6-0.8
		c-0.2-0.2-0.4-0.4-0.7-0.5s-0.6-0.2-0.9-0.2h-1v6.3c0,0.1,0,0.2-0.1,0.2c-0.1,0.1-0.1,0.1-0.3,0.2s-0.3,0.1-0.5,0.1s-0.5,0-0.8,0
		c-0.3,0-0.6,0-0.8,0c-0.2,0-0.4-0.1-0.5-0.1s-0.2-0.1-0.3-0.2s-0.1-0.1-0.1-0.2V5.2c0-0.4,0.1-0.6,0.3-0.8c0.2-0.2,0.4-0.2,0.7-0.2
		h4.3c0.4,0,0.8,0,1.1,0s0.5,0,0.8,0.1c0.7,0.1,1.3,0.3,1.8,0.5c0.5,0.2,1,0.5,1.3,0.9c0.4,0.4,0.7,0.8,0.8,1.3s0.3,1.1,0.3,1.7
		c0,0.6-0.1,1.1-0.2,1.5c-0.1,0.5-0.3,0.9-0.6,1.2s-0.6,0.7-1,0.9s-0.9,0.5-1.4,0.6c0.2,0.1,0.5,0.3,0.7,0.4
		c0.2,0.2,0.4,0.4,0.6,0.6c0.2,0.2,0.4,0.5,0.5,0.8s0.3,0.7,0.5,1l1.4,3.2c0.1,0.3,0.2,0.6,0.3,0.7S148.6,20,148.6,20.1z M144.3,9
		c0-0.5-0.1-1-0.4-1.4s-0.6-0.6-1.2-0.8c-0.2,0-0.4-0.1-0.6-0.1c-0.2,0-0.5,0-0.9,0h-1.5v4.7h1.7c0.5,0,0.9-0.1,1.2-0.2
		s0.7-0.3,0.9-0.5s0.4-0.5,0.5-0.7S144.3,9.3,144.3,9z"/>
</g>
</svg>
